<svg width="20" height="12" xmlns="http://www.w3.org/2000/svg"><path d="M6 12c0-.622-.095-1.221-.27-1.785A5.982 5.982 0 0010 12c1.67 0 3.182-.683 4.27-1.785A5.998 5.998 0 0014 12h2a4 4 0 014-4V6c-1.67 0-3.182.683-4.27 1.785a6.017 6.017 0 000-3.57A5.982 5.982 0 0020 6V4a4 4 0 01-4-4h-2c0 .622.095 1.221.27 1.785A5.982 5.982 0 0010 0C8.33 0 6.818.683 5.73 1.785 5.905 1.22 6 .622 6 0H4a4 4 0 01-4 4v2c1.67 0 3.182.683 4.27 1.785A5.998 5.998 0 014 6c0-.622.095-1.221.27-1.785A5.982 5.982 0 010 6v2a4 4 0 014 4h2zm-4 0a2 2 0 00-2-2v2h2zm16 0a2 2 0 012-2v2h-2zM0 2a2 2 0 002-2H0v2zm20 0a2 2 0 01-2-2h2v2zm-10 8a4 4 0 100-8 4 4 0 000 8zm0-2a2 2 0 100-4 2 2 0 000 4z" fill-rule="evenodd"/></svg>