<svg xmlns="http://www.w3.org/2000/svg" width="60" height="60"><path d="M29 58.58l7.38-7.39A30.95 30.95 0 0129 37.84a30.95 30.95 0 01-7.38 13.36l7.37 7.38zm1.4 1.41l.01.01h-2.84l-7.37-7.38A30.95 30.95 0 016.84 60H0v-1.02a28.9 28.9 0 0018.79-7.78L0 32.41v-4.84L18.78 8.79A28.9 28.9 0 000 1.02V0h6.84a30.95 30.95 0 0113.35 7.38L27.57 0h2.84l7.39 7.38A30.95 30.95 0 0151.16 0H60v27.58-.01V60h-8.84a30.95 30.95 0 01-13.37-7.4L30.4 60zM29 1.41l-7.4 7.38A30.95 30.95 0 0129 22.16 30.95 30.95 0 0136.38 8.8L29 1.4zM58 1a28.9 28.9 0 00-18.8 7.8L58 27.58V1.02zm-20.2 9.2A28.9 28.9 0 0030.02 29h26.56L37.8 10.21zM30.02 31a28.9 28.9 0 007.77 18.79L56.58 31H30.02zm9.18 20.2A28.9 28.9 0 0058 59V32.4L39.2 51.19zm-19-1.4A28.9 28.9 0 0027.98 31H1.41l18.8 18.8zM27.98 29a28.9 28.9 0 00-7.78-18.8L1.41 29h26.57z"/></svg>