<svg xmlns="http://www.w3.org/2000/svg" width="77" height="107"><path d="M46 101a5 5 0 015 5h5a5 5 0 0110 0h5a5 5 0 015-5v-5a5 5 0 010-10v-5a5 5 0 010-10v-5a5 5 0 010-10v-5a5 5 0 010-10v-5a5 5 0 010-10v-5a5 5 0 010-10V6a5 5 0 01-5-5h-5a5 5 0 01-10 0h-5a5 5 0 01-10 0h-5a5 5 0 01-10 0h-5a5 5 0 01-10 0H6a5 5 0 01-5 5v5a5 5 0 010 10v5a5 5 0 010 10v5a5 5 0 010 10v5a5 5 0 010 10v5a5 5 0 010 10v5a5 5 0 010 10v5a5 5 0 015 5h5a5 5 0 0110 0h5a5 5 0 0110 0h5a5 5 0 015-5zm15-2a7 7 0 00-6.71 5h-1.58a7 7 0 00-13.42 0h-1.58a7 7 0 00-13.42 0h-1.58a7 7 0 00-13.42 0H7.71A7.01 7.01 0 003 99.29v-1.58a7 7 0 000-13.42v-1.58a7 7 0 000-13.42v-1.58a7 7 0 000-13.42v-1.58a7 7 0 000-13.42v-1.58a7 7 0 000-13.42v-1.58A7 7 0 003 9.29V7.71A7.02 7.02 0 007.71 3h1.58a7 7 0 0013.42 0h1.58a7 7 0 0013.42 0h1.58a7 7 0 0013.42 0h1.58a7 7 0 0013.42 0h1.58A7.02 7.02 0 0074 7.71v1.58a7 7 0 000 13.42v1.58a7 7 0 000 13.42v1.58a7 7 0 000 13.42v1.58a7 7 0 000 13.42v1.58a7 7 0 000 13.42v1.58a7 7 0 000 13.42v1.58a7.01 7.01 0 00-4.71 4.71h-1.58A7 7 0 0061 99zM12 12h53v83H12V12zm51 81H14V14h49v79z" fill-rule="evenodd"/></svg>